<svg width="24" height="24" viewBox="0 0 24 24" fill="none" xmlns="http://www.w3.org/2000/svg">
<path fill-rule="evenodd" clip-rule="evenodd" d="M20.9336 8.54006C20.8919 8.43921 20.8305 8.34457 20.7494 8.26202C20.7456 8.25818 20.7418 8.25437 20.738 8.2506C20.5801 8.0956 20.3637 8 20.125 8H20.1249H17.5C17.0168 8 16.625 8.39175 16.625 8.875C16.625 9.35825 17.0168 9.75 17.5 9.75H18.0126L14.875 12.8876L11.9937 10.0063C11.652 9.66457 11.098 9.66457 10.7563 10.0063L7.25628 13.5063C6.91457 13.848 6.91457 14.402 7.25628 14.7437C7.59799 15.0854 8.15201 15.0854 8.49372 14.7437L11.375 11.8624L14.2563 14.7437C14.598 15.0854 15.152 15.0854 15.4937 14.7437L19.25 10.9874V11.5C19.25 11.9832 19.6418 12.375 20.125 12.375C20.6082 12.375 21 11.9832 21 11.5V8.875C21 8.75636 20.9764 8.64323 20.9336 8.54006Z" fill="black" fill-opacity="0.6"/>
<path fill-rule="evenodd" clip-rule="evenodd" d="M3.9 3C4.39706 3 4.8 3.40294 4.8 3.9V16.5C4.8 17.9912 6.00883 19.2 7.5 19.2H20.1C20.5971 19.2 21 19.6029 21 20.1C21 20.5971 20.5971 21 20.1 21H7.5C5.01472 21 3 18.9853 3 16.5V3.9C3 3.40294 3.40294 3 3.9 3Z" fill="black" fill-opacity="0.6"/>
</svg>
