<svg width="16" height="16" viewBox="0 0 16 16" fill="none" xmlns="http://www.w3.org/2000/svg">
<rect x="15.5" y="0.5" width="15" height="15" rx="3.5" transform="rotate(90 15.5 0.5)" stroke="black" stroke-opacity="0.16"/>
<path d="M7.88495 4.1633C7.98961 4.05877 8.13148 4.00006 8.27939 4.00006C8.42731 4.00006 8.56918 4.05877 8.67384 4.1633L11.8368 7.32629C11.9413 7.43094 12.0001 7.57281 12.0001 7.72073C12.0001 7.86864 11.9413 8.01051 11.8368 8.11517L8.67384 11.2782C8.56796 11.3767 8.42801 11.4304 8.28339 11.4279C8.13877 11.4254 8.00076 11.3669 7.89835 11.2648C7.79621 11.1624 7.73774 11.0243 7.73524 10.8797C7.73275 10.7351 7.78641 10.5951 7.88495 10.4893L10.0953 8.2789H4.55823C4.4102 8.2789 4.26822 8.22009 4.16355 8.11542C4.05887 8.01074 4.00006 7.86877 4.00006 7.72073C4.00006 7.57269 4.05887 7.43072 4.16355 7.32604C4.26822 7.22136 4.4102 7.16255 4.55823 7.16255H10.0953L7.88495 4.95219C7.78042 4.84753 7.72171 4.70566 7.72171 4.55774C7.72171 4.40983 7.78042 4.26796 7.88495 4.1633Z" fill="black"/>
</svg>
