<svg width="17" height="18" viewBox="0 0 17 18" fill="none" xmlns="http://www.w3.org/2000/svg">
<rect x="0.501041" y="16.4844" width="15" height="15" rx="3.5" transform="rotate(-89.8806 0.501041 16.4844)" stroke="black" stroke-opacity="0.16"/>
<path d="M8.12368 12.8369C8.01881 12.9413 7.87682 12.9997 7.7289 12.9994C7.58098 12.9991 7.43924 12.94 7.3348 12.8353L4.17841 9.66573C4.0741 9.56086 4.01569 9.41886 4.01599 9.27095C4.0163 9.12303 4.07531 8.98129 4.18006 8.87685L7.34963 5.72046C7.45571 5.62214 7.59577 5.56877 7.74038 5.57157C7.885 5.57437 8.02289 5.63312 8.12509 5.73547C8.22701 5.83809 8.28519 5.97623 8.28739 6.12086C8.28958 6.26548 8.23563 6.40532 8.13687 6.51099L5.9219 8.71675L11.459 8.72829C11.607 8.72859 11.7489 8.7877 11.8533 8.89259C11.9578 8.99749 12.0163 9.13959 12.016 9.28762C12.0157 9.43566 11.9566 9.57751 11.8517 9.68197C11.7468 9.78643 11.6047 9.84494 11.4566 9.84463L5.91957 9.83309L8.12533 12.0481C8.22964 12.1529 8.28805 12.2949 8.28774 12.4428C8.28743 12.5908 8.22843 12.7325 8.12368 12.8369Z" fill="black"/>
</svg>
