<svg width="24" height="24" viewBox="0 0 24 24" fill="none" xmlns="http://www.w3.org/2000/svg">
<path fill-rule="evenodd" clip-rule="evenodd" d="M9.54553 6.18635C8.18992 6.18635 7.09098 7.28529 7.09098 8.6409C7.09098 9.9965 8.18992 11.0954 9.54553 11.0954C10.9011 11.0954 12.0001 9.9965 12.0001 8.6409C12.0001 8.02065 11.77 7.45413 11.3906 7.02202L11.3814 7.01165C10.9318 6.50536 10.2759 6.18635 9.54553 6.18635ZM13.6364 8.6409C13.6364 7.89744 13.4381 7.20029 13.0915 6.59949C13.2539 6.49104 13.4294 6.40194 13.6143 6.33457C13.9997 6.1942 14.4141 6.15265 14.8197 6.21369C15.2253 6.27474 15.6091 6.43645 15.9361 6.68404C16.2631 6.93163 16.5228 7.25721 16.6915 7.63104C16.8603 8.00486 16.9327 8.41501 16.9021 8.82401C16.8715 9.23302 16.7389 9.62783 16.5164 9.97239C16.2939 10.3169 15.9886 10.6003 15.6284 10.7964C15.2682 10.9926 14.8646 11.0954 14.4545 11.0954C14.4519 11.0954 14.4494 11.0955 14.4468 11.0955C14.0697 11.0941 13.5379 10.9879 13.0724 10.7151C13.4308 10.1069 13.6364 9.39791 13.6364 8.6409ZM14.1112 12.7161C15.3205 13.7392 16.0909 15.1766 16.0909 16.8227C16.0909 17.2746 15.7246 17.6409 15.2727 17.6409C14.8209 17.6409 14.4545 17.2746 14.4545 16.8227C14.4545 14.6769 12.3796 12.7318 9.54545 12.7318C6.71134 12.7318 4.63636 14.6769 4.63636 16.8227C4.63636 17.2746 4.27005 17.6409 3.81818 17.6409C3.36631 17.6409 3 17.2746 3 16.8227C3 14.4666 4.57831 12.5379 6.76322 11.64C5.9583 10.8929 5.45462 9.82571 5.45462 8.6409C5.45462 6.38155 7.28618 4.54999 9.54553 4.54999C10.4665 4.54999 11.3164 4.85433 12.0001 5.36792C12.3204 5.12779 12.6754 4.93504 13.0543 4.79701C13.6966 4.56307 14.3873 4.49381 15.0633 4.59556C15.7392 4.69731 16.3789 4.96682 16.9239 5.37947C17.4689 5.79212 17.9018 6.33475 18.183 6.9578C18.4642 7.58084 18.5849 8.26442 18.5339 8.94609C18.4829 9.62777 18.2619 10.2858 17.8911 10.8601C17.7055 11.1474 17.4854 11.4092 17.2366 11.64C19.4216 12.5379 21 14.4666 21 16.8228C21 17.2746 20.6337 17.6409 20.1818 17.6409C19.7299 17.6409 19.3636 17.2746 19.3636 16.8228C19.3636 14.677 17.2886 12.7319 14.4545 12.7319C14.3482 12.7319 14.2331 12.7269 14.1112 12.7161Z" fill="black" fill-opacity="0.6"/>
</svg>
