<svg width="24" height="24" viewBox="0 0 24 24" fill="none" xmlns="http://www.w3.org/2000/svg">
<path d="M11.955 17.4C12.27 17.4 12.5364 17.2911 12.7542 17.0733C12.972 16.8555 13.0806 16.5894 13.08 16.275C13.08 15.96 12.9714 15.6936 12.7542 15.4758C12.537 15.258 12.2706 15.1494 11.955 15.15C11.64 15.15 11.3739 15.2589 11.1567 15.4767C10.9395 15.6945 10.8306 15.9606 10.83 16.275C10.83 16.59 10.9389 16.8564 11.1567 17.0742C11.3745 17.292 11.6406 17.4006 11.955 17.4ZM11.145 13.935H12.81C12.81 13.44 12.8664 13.05 12.9792 12.765C13.092 12.48 13.4106 12.09 13.935 11.595C14.325 11.205 14.6325 10.8336 14.8575 10.4808C15.0825 10.128 15.195 9.7044 15.195 9.21C15.195 8.37 14.8875 7.725 14.2725 7.275C13.6575 6.825 12.93 6.6 12.09 6.6C11.235 6.6 10.5414 6.825 10.0092 7.275C9.477 7.725 9.1056 8.265 8.895 8.895L10.38 9.48C10.455 9.21 10.6239 8.9175 10.8867 8.6025C11.1495 8.2875 11.5506 8.13 12.09 8.13C12.57 8.13 12.93 8.2614 13.17 8.5242C13.41 8.787 13.53 9.0756 13.53 9.39C13.53 9.69 13.44 9.9714 13.26 10.2342C13.08 10.497 12.855 10.7406 12.585 10.965C11.925 11.55 11.52 11.9925 11.37 12.2925C11.22 12.5925 11.145 13.14 11.145 13.935ZM12 21C10.755 21 9.585 20.7639 8.49 20.2917C7.395 19.8195 6.4425 19.1781 5.6325 18.3675C4.8225 17.5575 4.1814 16.605 3.7092 15.51C3.237 14.415 3.0006 13.245 3 12C3 10.755 3.2364 9.585 3.7092 8.49C4.182 7.395 4.8231 6.4425 5.6325 5.6325C6.4425 4.8225 7.395 4.1814 8.49 3.7092C9.585 3.237 10.755 3.0006 12 3C13.245 3 14.415 3.2364 15.51 3.7092C16.605 4.182 17.5575 4.8231 18.3675 5.6325C19.1775 6.4425 19.8189 7.395 20.2917 8.49C20.7645 9.585 21.0006 10.755 21 12C21 13.245 20.7636 14.415 20.2908 15.51C19.818 16.605 19.1769 17.5575 18.3675 18.3675C17.5575 19.1775 16.605 19.8189 15.51 20.2917C14.415 20.7645 13.245 21.0006 12 21ZM12 19.2C14.01 19.2 15.7125 18.5025 17.1075 17.1075C18.5025 15.7125 19.2 14.01 19.2 12C19.2 9.99 18.5025 8.2875 17.1075 6.8925C15.7125 5.4975 14.01 4.8 12 4.8C9.99 4.8 8.2875 5.4975 6.8925 6.8925C5.4975 8.2875 4.8 9.99 4.8 12C4.8 14.01 5.4975 15.7125 6.8925 17.1075C8.2875 18.5025 9.99 19.2 12 19.2Z" fill="black" fill-opacity="0.6"/>
</svg>
