<svg width="24" height="24" viewBox="0 0 24 24" fill="none" xmlns="http://www.w3.org/2000/svg">
<path d="M13.4364 9.51581C13.4364 9.32545 13.3608 9.14288 13.2262 9.00828C13.0916 8.87367 12.909 8.79805 12.7186 8.79805H6.97655C6.78619 8.79805 6.60362 8.87367 6.46902 9.00828C6.33441 9.14288 6.25879 9.32545 6.25879 9.51581C6.25879 9.70617 6.33441 9.88874 6.46902 10.0233C6.60362 10.158 6.78619 10.2336 6.97655 10.2336H12.7186C12.909 10.2336 13.0916 10.158 13.2262 10.0233C13.3608 9.88874 13.4364 9.70617 13.4364 9.51581ZM12.4794 12.3869C12.4794 12.1965 12.4038 12.0139 12.2692 11.8793C12.1346 11.7447 11.952 11.6691 11.7616 11.6691H6.97655C6.78619 11.6691 6.60362 11.7447 6.46902 11.8793C6.33441 12.0139 6.25879 12.1965 6.25879 12.3869C6.25879 12.5772 6.33441 12.7598 6.46902 12.8944C6.60362 13.029 6.78619 13.1046 6.97655 13.1046H11.7616C11.952 13.1046 12.1346 13.029 12.2692 12.8944C12.4038 12.7598 12.4794 12.5772 12.4794 12.3869ZM12.7186 14.5401C12.909 14.5401 13.0916 14.6158 13.2262 14.7504C13.3608 14.885 13.4364 15.0675 13.4364 15.2579C13.4364 15.4483 13.3608 15.6308 13.2262 15.7654C13.0916 15.9 12.909 15.9757 12.7186 15.9757H6.97655C6.78619 15.9757 6.60362 15.9 6.46902 15.7654C6.33441 15.6308 6.25879 15.4483 6.25879 15.2579C6.25879 15.0675 6.33441 14.885 6.46902 14.7504C6.60362 14.6158 6.78619 14.5401 6.97655 14.5401H12.7186Z" fill="black" fill-opacity="0.6"/>
<path fill-rule="evenodd" clip-rule="evenodd" d="M6.25879 21H18.7C19.398 21 20.0674 20.7227 20.561 20.2292C21.0545 19.7356 21.3318 19.0662 21.3318 18.3682V13.1046C21.3318 12.9143 21.2562 12.7317 21.1216 12.5971C20.987 12.4625 20.8044 12.3869 20.614 12.3869H17.5037V4.91544C17.5037 3.5536 15.9639 2.76119 14.8557 3.55265L14.6882 3.67227C14.3214 3.93261 13.8827 4.07214 13.4329 4.07145C12.9832 4.07077 12.5448 3.9299 12.1789 3.66845C11.568 3.23364 10.8367 3 10.0869 3C9.33699 3 8.60576 3.23364 7.99482 3.66845C7.62888 3.9299 7.19053 4.07077 6.74078 4.07145C6.29104 4.07214 5.85226 3.93261 5.48552 3.67227L5.31805 3.55265C4.20982 2.76119 2.66998 3.55265 2.66998 4.91544V17.4112C2.66998 18.363 3.04809 19.2758 3.72112 19.9489C4.39415 20.6219 5.30698 21 6.25879 21ZM8.82934 4.836C9.19678 4.57517 9.63624 4.43504 10.0869 4.43504C10.5375 4.43504 10.9769 4.57517 11.3444 4.836C11.9537 5.27156 12.6838 5.50612 13.4328 5.50698C14.1818 5.50784 14.9124 5.27495 15.5227 4.84079L15.6902 4.72116C15.7259 4.69571 15.768 4.68058 15.8117 4.67743C15.8555 4.67427 15.8993 4.68321 15.9383 4.70327C15.9773 4.72332 16.0101 4.75372 16.033 4.79114C16.0559 4.82856 16.0681 4.87156 16.0682 4.91544V18.3682C16.0682 18.7989 16.1716 19.2056 16.3553 19.5645H6.25879C5.68771 19.5645 5.14001 19.3376 4.73619 18.9338C4.33237 18.53 4.10551 17.9823 4.10551 17.4112V4.91544C4.10562 4.87156 4.1178 4.82856 4.14071 4.79114C4.16362 4.75372 4.19637 4.72332 4.2354 4.70327C4.27442 4.68321 4.31821 4.67427 4.36197 4.67743C4.40573 4.68058 4.44779 4.69571 4.48353 4.72116L4.65101 4.84079C5.26134 5.27495 5.99194 5.50784 6.74094 5.50698C7.48994 5.50612 8.22 5.27156 8.82934 4.836ZM17.5037 18.3682V13.8224H19.8963V18.3682C19.8963 18.6855 19.7702 18.9898 19.5459 19.2141C19.3215 19.4384 19.0173 19.5645 18.7 19.5645C18.3827 19.5645 18.0785 19.4384 17.8541 19.2141C17.6298 18.9898 17.5037 18.6855 17.5037 18.3682Z" fill="black" fill-opacity="0.6"/>
</svg>
