<svg width="24" height="24" viewBox="0 0 24 24" fill="none" xmlns="http://www.w3.org/2000/svg">
<path d="M11.5706 20.129C11.5706 19.898 11.6623 19.6765 11.8257 19.5132C11.989 19.3498 12.2105 19.2581 12.4415 19.2581H19.4093C19.4863 19.2581 19.5601 19.2275 19.6146 19.173C19.669 19.1186 19.6996 19.0447 19.6996 18.9677V5.03226C19.6996 4.95526 19.669 4.88141 19.6146 4.82697C19.5601 4.77252 19.4863 4.74194 19.4093 4.74194H12.4415C12.2105 4.74194 11.989 4.65017 11.8257 4.48684C11.6623 4.3235 11.5706 4.10196 11.5706 3.87097C11.5706 3.63997 11.6623 3.41844 11.8257 3.2551C11.989 3.09176 12.2105 3 12.4415 3H19.4093C20.5311 3 21.4415 3.91045 21.4415 5.03226V18.9677C21.4415 19.5067 21.2274 20.0236 20.8463 20.4048C20.4652 20.7859 19.9483 21 19.4093 21H12.4415C12.2105 21 11.989 20.9082 11.8257 20.7449C11.6623 20.5816 11.5706 20.36 11.5706 20.129Z" fill="black" fill-opacity="0.6"/>
<path d="M16.6362 13.2949C16.6362 13.6028 16.5139 13.8982 16.2961 14.116C16.0783 14.3338 15.7829 14.4561 15.4749 14.4561H9.83571C9.809 14.8696 9.77532 15.2807 9.73584 15.6941L9.701 16.0483C9.68803 16.1818 9.64304 16.3102 9.56987 16.4226C9.49669 16.5349 9.39748 16.628 9.28066 16.6939C9.16384 16.7598 9.03285 16.7965 8.8988 16.801C8.76476 16.8054 8.63162 16.7775 8.51068 16.7195C6.38781 15.7021 4.46604 14.3098 2.83777 12.6097L2.80294 12.5737C2.65346 12.4178 2.57001 12.2102 2.57001 11.9942C2.57001 11.7782 2.65346 11.5706 2.80294 11.4147L2.83777 11.3787C4.46602 9.67858 6.3878 8.28632 8.51068 7.26892C8.63162 7.21095 8.76476 7.183 8.8988 7.18746C9.03285 7.19191 9.16384 7.22864 9.28066 7.29451C9.39748 7.36039 9.49669 7.45348 9.56987 7.56587C9.64304 7.67827 9.68803 7.80666 9.701 7.94015L9.73584 8.29434C9.77532 8.7066 9.809 9.11886 9.83571 9.53228H15.4749C15.7829 9.53228 16.0783 9.65463 16.2961 9.87241C16.5139 10.0902 16.6362 10.3856 16.6362 10.6936V13.2949Z" fill="black" fill-opacity="0.6"/>
</svg>
