<svg width="24" height="24" viewBox="0 0 24 24" fill="none" xmlns="http://www.w3.org/2000/svg">
<path fill-rule="evenodd" clip-rule="evenodd" d="M6.6 5.25001C6.12261 5.25001 5.66477 5.43965 5.32721 5.77722C4.98964 6.11479 4.8 6.57262 4.8 7.05001V14.25C4.8 14.7274 4.98964 15.1852 5.32721 15.5228C5.66477 15.8604 6.12261 16.05 6.6 16.05H9.3C9.53869 16.05 9.76761 16.1448 9.9364 16.3136L12 18.3772L14.0636 16.3136C14.2324 16.1448 14.4613 16.05 14.7 16.05H17.4C17.8774 16.05 18.3352 15.8604 18.6728 15.5228C19.0104 15.1852 19.2 14.7274 19.2 14.25V7.05001C19.2 6.57262 19.0104 6.11479 18.6728 5.77722C18.3352 5.43965 17.8774 5.25001 17.4 5.25001H6.6ZM4.05442 4.50443C4.72955 3.8293 5.64522 3.45001 6.6 3.45001H17.4C18.3548 3.45001 19.2705 3.8293 19.9456 4.50443C20.6207 5.17956 21 6.09523 21 7.05001V14.25C21 15.2048 20.6207 16.1205 19.9456 16.7956C19.2705 17.4707 18.3548 17.85 17.4 17.85H15.0728L12.6364 20.2864C12.2849 20.6379 11.7151 20.6379 11.3636 20.2864L8.92721 17.85H6.6C5.64522 17.85 4.72955 17.4707 4.05442 16.7956C3.37928 16.1205 3 15.2048 3 14.25V7.05001C3 6.09523 3.37928 5.17956 4.05442 4.50443ZM7.5 8.85001C7.5 8.35296 7.90294 7.95001 8.4 7.95001H15.6C16.0971 7.95001 16.5 8.35296 16.5 8.85001C16.5 9.34707 16.0971 9.75001 15.6 9.75001H8.4C7.90294 9.75001 7.5 9.34707 7.5 8.85001ZM7.5 12.45C7.5 11.953 7.90294 11.55 8.4 11.55H13.8C14.2971 11.55 14.7 11.953 14.7 12.45C14.7 12.9471 14.2971 13.35 13.8 13.35H8.4C7.90294 13.35 7.5 12.9471 7.5 12.45Z" fill="black" fill-opacity="0.6"/>
</svg>
