<svg width="24" height="24" viewBox="0 0 24 24" fill="none" xmlns="http://www.w3.org/2000/svg">
<path d="M19.2 8.39999H4.8V6.59999H19.2M19.2 17.4H4.8V12H19.2M19.2 4.79999H4.8C3.801 4.79999 3 5.60099 3 6.59999V17.4C3 17.8774 3.18964 18.3352 3.52721 18.6728C3.86477 19.0103 4.32261 19.2 4.8 19.2H19.2C19.6774 19.2 20.1352 19.0103 20.4728 18.6728C20.8104 18.3352 21 17.8774 21 17.4V6.59999C21 6.1226 20.8104 5.66476 20.4728 5.3272C20.1352 4.98963 19.6774 4.79999 19.2 4.79999Z" fill="black" fill-opacity="0.6"/>
</svg>
