<svg width="24" height="24" viewBox="0 0 24 24" fill="none" xmlns="http://www.w3.org/2000/svg">
<rect width="24" height="24" rx="4" fill="white"/>
<path fill-rule="evenodd" clip-rule="evenodd" d="M10.0908 5.59081C10.5972 5.08446 11.2839 4.8 12 4.8C12.7161 4.8 13.4028 5.08446 13.9092 5.59081C14.4155 6.09716 14.7 6.78392 14.7 7.5L9.3 7.5V7.5C9.3 6.78392 9.58446 6.09716 10.0908 5.59081ZM7.5 7.50373V7.5C7.5 6.30653 7.97411 5.16193 8.81802 4.31802C9.66193 3.47411 10.8065 3 12 3C13.1935 3 14.3381 3.47411 15.182 4.31802C16.0259 5.16193 16.5 6.30653 16.5 7.5V7.50373C16.9481 7.51012 17.3487 7.52738 17.695 7.57396C18.285 7.65334 18.8502 7.83235 19.3089 8.29101C19.7676 8.74967 19.9466 9.3149 20.0259 9.90496C20.1 10.4554 20.1 11.1427 20.0999 11.9407L20.0999 12.9659C20.0999 14.6069 20.1 15.9297 19.96 16.9701C19.8148 18.0501 19.504 18.9595 18.7815 19.6816C18.0595 20.4041 17.15 20.7149 16.07 20.8601C15.0296 21 13.7068 21 12.0658 21H12.0658H11.9341H11.934C10.293 21 8.97021 21 7.92984 20.8601C6.84997 20.7149 5.94059 20.4042 5.21858 19.6819C4.49603 18.9598 4.18505 18.0501 4.03979 16.9701C3.89986 15.9297 3.89988 14.6069 3.89991 12.9659L3.89991 12L3.8999 11.9407C3.89986 11.1427 3.89982 10.4554 3.97387 9.90496C4.05325 9.3149 4.23225 8.74967 4.69091 8.29101C5.14957 7.83235 5.7148 7.65334 6.30486 7.57396C6.65121 7.52737 7.05177 7.51011 7.5 7.50373ZM10.2 12C10.2 11.5029 9.79706 11.1 9.3 11.1C8.80294 11.1 8.4 11.5029 8.4 12V13.8C8.4 14.2971 8.80294 14.7 9.3 14.7C9.79706 14.7 10.2 14.2971 10.2 13.8V12ZM15.6 12C15.6 11.5029 15.1971 11.1 14.7 11.1C14.2029 11.1 13.8 11.5029 13.8 12V13.8C13.8 14.2971 14.2029 14.7 14.7 14.7C15.1971 14.7 15.6 14.2971 15.6 13.8V12ZM5.9637 9.5638C6.03244 9.49506 6.15481 9.41037 6.54485 9.35789C6.8718 9.31391 7.29057 9.30331 7.87909 9.30078C8.03955 9.30009 8.21263 9.3 8.39991 9.3H15.5999C16.4741 9.3 17.0389 9.30192 17.455 9.35789C17.845 9.41037 17.9674 9.49506 18.0361 9.5638C18.1048 9.63254 18.1895 9.75491 18.242 10.1449C18.298 10.561 18.2999 11.1258 18.2999 12V12.9C18.2999 14.6224 18.298 15.8237 18.1761 16.7301C18.0577 17.6106 17.8405 18.0773 17.5084 18.4091C17.1766 18.7412 16.7106 18.9578 15.83 19.0762C14.9237 19.1981 13.7223 19.2 11.9999 19.2C10.2775 19.2 9.07616 19.1981 8.16977 19.0762C7.28926 18.9578 6.82263 18.7406 6.49083 18.4085C6.20751 18.1255 6.00825 17.7446 5.8823 17.0921C5.86062 16.9798 5.84111 16.8594 5.82373 16.7301C5.70182 15.8237 5.69991 14.6224 5.69991 12.9V12C5.69991 11.1258 5.70182 10.561 5.7578 10.1449C5.81027 9.75491 5.89496 9.63254 5.9637 9.5638Z" fill="black" fill-opacity="0.6"/>
</svg>
