<svg width="24" height="24" viewBox="0 0 24 24" fill="none" xmlns="http://www.w3.org/2000/svg">
<path d="M19.3969 12.5939C19.2526 12.4297 19.173 12.2186 19.173 12C19.173 11.7814 19.2526 11.5703 19.3969 11.4061L20.5487 10.1103C20.6756 9.96868 20.7545 9.79053 20.7739 9.60138C20.7933 9.41223 20.7522 9.2218 20.6567 9.0574L18.8569 5.94382C18.7624 5.77961 18.6184 5.64945 18.4455 5.57189C18.2726 5.49433 18.0796 5.47333 17.8941 5.51188L16.2023 5.85384C15.987 5.89832 15.7629 5.86246 15.5723 5.75305C15.3816 5.64363 15.2376 5.46822 15.1674 5.25992L14.6185 3.61314C14.5582 3.43441 14.4431 3.27916 14.2897 3.16936C14.1363 3.05955 13.9523 3.00074 13.7636 3.00122H10.1641C9.96789 2.99098 9.7737 3.04525 9.61121 3.15575C9.44872 3.26624 9.32686 3.42688 9.26425 3.61314L8.76032 5.25992C8.69013 5.46822 8.54612 5.64363 8.35547 5.75305C8.16483 5.86246 7.94072 5.89832 7.72546 5.85384L5.98869 5.51188C5.81281 5.48703 5.63351 5.51478 5.47338 5.59165C5.31324 5.66851 5.17944 5.79105 5.08882 5.94382L3.28906 9.0574C3.19112 9.21996 3.14708 9.40933 3.16324 9.59843C3.17941 9.78753 3.25494 9.96667 3.37905 10.1103L4.52189 11.4061C4.66616 11.5703 4.74572 11.7814 4.74572 12C4.74572 12.2186 4.66616 12.4297 4.52189 12.5939L3.37905 13.8897C3.25494 14.0333 3.17941 14.2125 3.16324 14.4016C3.14708 14.5907 3.19112 14.78 3.28906 14.9426L5.08882 18.0562C5.18339 18.2204 5.32739 18.3505 5.50029 18.4281C5.67318 18.5057 5.86615 18.5267 6.05169 18.4881L7.74346 18.1462C7.95872 18.1017 8.18282 18.1375 8.37347 18.247C8.56412 18.3564 8.70813 18.5318 8.77832 18.7401L9.32724 20.3869C9.38985 20.5731 9.51171 20.7338 9.6742 20.8443C9.83669 20.9547 10.0309 21.009 10.2271 20.9988H13.8266C14.0153 20.9993 14.1993 20.9404 14.3527 20.8306C14.5061 20.7208 14.6211 20.5656 14.6815 20.3869L15.2304 18.7401C15.3006 18.5318 15.4446 18.3564 15.6353 18.247C15.8259 18.1375 16.05 18.1017 16.2653 18.1462L17.9571 18.4881C18.1426 18.5267 18.3356 18.5057 18.5085 18.4281C18.6814 18.3505 18.8254 18.2204 18.9199 18.0562L20.7197 14.9426C20.8152 14.7782 20.8562 14.5878 20.8368 14.3986C20.8174 14.2095 20.7386 14.0313 20.6117 13.8897L19.3969 12.5939ZM18.0561 13.7998L18.776 14.6096L17.6241 16.6074L16.5623 16.3914C15.9141 16.2589 15.24 16.369 14.6676 16.7008C14.0953 17.0325 13.6648 17.5629 13.4577 18.1912L13.1157 19.199H10.812L10.4881 18.1732C10.281 17.5449 9.85041 17.0146 9.27811 16.6828C8.70581 16.351 8.03162 16.2409 7.3835 16.3734L6.32165 16.5894L5.15181 14.6006L5.87171 13.7908C6.31441 13.2958 6.55916 12.655 6.55916 11.991C6.55916 11.327 6.31441 10.6862 5.87171 10.1912L5.15181 9.38136L6.30365 7.40163L7.36551 7.6176C8.01362 7.75008 8.68781 7.63999 9.26011 7.30822C9.83241 6.97645 10.263 6.4461 10.4701 5.81784L10.812 4.80098H13.1157L13.4577 5.82684C13.6648 6.4551 14.0953 6.98545 14.6676 7.31722C15.24 7.64898 15.9141 7.75908 16.5623 7.62659L17.6241 7.41062L18.776 9.40835L18.0561 10.2182C17.6183 10.7121 17.3766 11.3491 17.3766 12.009C17.3766 12.6689 17.6183 13.3059 18.0561 13.7998ZM11.9639 8.40049C11.252 8.40049 10.556 8.6116 9.9641 9.00712C9.37216 9.40264 8.91081 9.9648 8.63837 10.6225C8.36593 11.2803 8.29465 12.004 8.43353 12.7022C8.57242 13.4005 8.91524 14.0418 9.41864 14.5452C9.92204 15.0486 10.5634 15.3915 11.2617 15.5303C11.9599 15.6692 12.6836 15.598 13.3414 15.3255C13.9991 15.0531 14.5612 14.5917 14.9568 13.9998C15.3523 13.4078 15.5634 12.7119 15.5634 12C15.5634 11.0454 15.1842 10.1298 14.5091 9.45476C13.8341 8.77972 12.9185 8.40049 11.9639 8.40049ZM11.9639 13.7998C11.6079 13.7998 11.26 13.6942 10.964 13.4964C10.668 13.2987 10.4373 13.0176 10.3011 12.6887C10.1649 12.3599 10.1293 11.998 10.1987 11.6489C10.2682 11.2998 10.4396 10.9791 10.6913 10.7274C10.943 10.4757 11.2636 10.3043 11.6128 10.2348C11.9619 10.1654 12.3238 10.201 12.6526 10.3372C12.9815 10.4735 13.2626 10.7041 13.4603 11.0001C13.6581 11.2961 13.7636 11.644 13.7636 12C13.7636 12.4773 13.574 12.9351 13.2365 13.2726C12.899 13.6101 12.4412 13.7998 11.9639 13.7998Z" fill="black" fill-opacity="0.6"/>
</svg>
